#!OML:ASF I:\Actors\actors\Patient Classification 2\Patient 1\Session 1\actor1.ASF
:FULLY-SPECIFIED
:DEGREES
623
root -1.05038 18.1504 5.60552 -1.73569 -1.8167 -4.00185
lowerback 4.12444 0.506464 2.3485
upperback 0.525905 0.816567 1.90859
thorax -1.76724 0.396968 0.596835
lowerneck -9.8629 -1.43376 -1.26625
upperneck 29.5621 -1.93521 0.465297
head 11.1988 -0.96574 0.150008
rclavicle -1.64308e-014 -1.59028e-015
rhumerus -27.5265 29.8117 -90.2742
rradius 91.933
rwrist 31.0397
rhand -23.7496 -37.6655
rfingers 7.12502
rthumb 2.71921 -67.628
lclavicle -1.64308e-014 -1.59028e-015
lhumerus -22.2189 -25.9223 97.7234
lradius 86.8177
lwrist -14.2224
lhand -2.39716 -18.5475
lfingers 7.12502
lthumb 23.2924 10.0635
rfemur 0 0 0
rtibia 0
rfoot 0 0
rtoes 0
lfemur 18.847 -5.97307 -12.7865
ltibia -17.8356
lfoot -2.65805 19.1567
ltoes -11.0638
624
root -1.05133 18.1506 5.60567 -1.71124 -1.8096 -4.01731
lowerback 4.13204 0.509787 2.36762
upperback 0.519809 0.82269 1.92735
thorax -1.77773 0.39984 0.604964
lowerneck -9.82013 -1.46166 -1.28543
upperneck 29.3927 -1.97426 0.479731
head 11.1258 -0.984194 0.15461
rclavicle -2.0655e-015 1.27222e-014
rhumerus -27.5397 29.7521 -90.2518
rradius 91.8839
rwrist 31.2293
rhand -24.3155 -36.9225
rfingers 7.12502
rthumb 2.17262 -66.8912
lclavicle -2.0655e-015 1.27222e-014
lhumerus -22.2328 -25.8798 97.7479
lradius 86.831
lwrist -14.1791
lhand -2.44086 -18.6494
lfingers 7.12502
lthumb 23.2505 9.96693
rfemur 0 0 0
rtibia 0
rfoot 0 0
rtoes 0
lfemur 18.8156 -5.98651 -12.7629
ltibia -17.8339
lfoot -2.66951 19.186
ltoes -11.1073
625
root -1.05255 18.1505 5.60685 -1.67207 -1.81013 -4.0682
lowerback 4.10697 0.510289 2.42464
upperback 0.506815 0.825884 1.95562
thorax -1.77665 0.401077 0.602102
lowerneck -9.70076 -1.48562 -1.35114
upperneck 29.1656 -2.02839 0.598244
head 11.0175 -1.00266 0.204035
rclavicle 5.54733e-015 -2.44505e-014
rhumerus -27.5919 29.7055 -90.2743
rradius 91.8918
rwrist 31.2216
rhand -24.7408 -36.6783
rfingers 7.12502
rthumb 1.7619 -66.6508
lclavicle 5.54733e-015 -2.44505e-014
lhumerus -22.3003 -25.8216 97.7856
lradius 86.885
lwrist -14.1601
lhand -2.56195 -18.8077
lfingers 7.12502
lthumb 23.1343 9.82322
rfemur 0 0 0
rtibia 0
rfoot 0 0
rtoes 0
lfemur 18.7736 -6.00174 -12.6946
ltibia -17.8303
lfoot -2.70399 19.1934
ltoes -11.0382
626
root -1.05381 18.151 5.60743 -1.65069 -1.81339 -4.07397
lowerback 4.12588 0.509732 2.43949
upperback 0.498071 0.827407 1.98574
thorax -1.79647 0.401624 0.624428
lowerneck -9.57812 -1.52107 -1.48704
upperneck 28.8894 -2.09086 0.743698
head 10.8921 -1.02955 0.274243
rclavicle -1.41727e-014 -3.598e-014
rhumerus -27.6286 29.6722 -90.258
rradius 91.9645
rwrist 31.1738
rhand -24.9481 -36.494
rfingers 7.12502
rthumb 1.56173 -66.468
lclavicle -1.41727e-014 -3.598e-014
lhumerus -22.3695 -25.7521 97.8457
lradius 86.9515
lwrist -14.1562
lhand -2.64568 -18.9285
lfingers 7.12502
lthumb 23.054 9.71254
rfemur 0 0 0
rtibia 0
rfoot 0 0
rtoes 0
lfemur 18.7612 -5.98488 -12.6734
ltibia -17.8427
lfoot -2.71333 19.1766
ltoes -10.8158
627
root -1.05496 18.1517 5.60733 -1.65294 -1.81907 -4.06055
lowerback 4.17885 0.502246 2.43068
upperback 0.496548 0.81974 2.0146
thorax -1.82831 0.397684 0.658939
lowerneck -9.53255 -1.55261 -1.60001
upperneck 28.6704 -2.12949 0.810651
head 10.8029 -1.05198 0.314008
rclavicle -5.86725e-015 -1.19271e-014
rhumerus -27.6316 29.6443 -90.2443
rradius 92.0103
rwrist 31.167
rhand -25.0457 -36.1283
rfingers 7.12502
rthumb 1.46745 -66.103
lclavicle -5.86725e-015 -1.19271e-014
lhumerus -22.4227 -25.6767 97.8879
lradius 87.0186
lwrist -14.1592
lhand -2.57651 -18.935
lfingers 7.12502
lthumb 23.1204 9.69777
rfemur 0 0 0
rtibia 0
rfoot 0 0
rtoes 0
lfemur 18.7816 -5.96238 -12.6801
ltibia -17.8695
lfoot -2.69668 19.1735
ltoes -10.7237
628
root -1.05654 18.151 5.60731 -1.65686 -1.81696 -4.09502
lowerback 4.19184 0.483806 2.45985
upperback 0.506529 0.797385 2.04999
thorax -1.82559 0.386484 0.680157
lowerneck -9.51298 -1.5563 -1.65545
upperneck 28.5175 -2.1345 0.855161
head 10.7427 -1.05532 0.339377
rclavicle 1.40702e-015 -1.13307e-014
rhumerus -27.6229 29.618 -90.2794
rradius 92.0072
rwrist 31.1956
rhand -25.1934 -35.6365
rfingers 7.12502
rthumb 1.32478 -65.6122
lclavicle 1.40702e-015 -1.13307e-014
lhumerus -22.4281 -25.6495 97.8761
lradius 87.0665
lwrist -14.1157
lhand -2.44542 -18.8594
lfingers 7.12502
lthumb 23.2461 9.75754
rfemur 0 0 0
rtibia 0
rfoot 0 0
rtoes 0
lfemur 18.7976 -5.94079 -12.6307
ltibia -17.8918
lfoot -2.67262 19.142
ltoes -10.7192
629
root -1.05906 18.1496 5.60654 -1.69033 -1.89325 -4.13345
lowerback 4.23205 0.493493 2.49974
upperback 0.523227 0.813817 2.08223
thorax -1.83079 0.394507 0.689737
lowerneck -9.49505 -1.54805 -1.70529
upperneck 28.4107 -2.12461 0.901959
head 10.7 -1.05087 0.366251
rclavicle 1.26477e-014 1.35174e-014
rhumerus -27.6295 29.604 -90.3165
rradius 92.0134
rwrist 31.3096
rhand -25.2741 -35.2609
rfingers 7.12502
rthumb 1.24687 -65.237
lclavicle 1.26477e-014 1.35174e-014
lhumerus -22.3878 -25.6572 97.8559
lradius 87.0462
lwrist -14.0573
lhand -2.34592 -18.8616
lfingers 7.12502
lthumb 23.3416 9.74323
rfemur 0 0 0
rtibia 0
rfoot 0 0
rtoes 0
lfemur 18.8607 -5.86553 -12.5787
ltibia -17.9161
lfoot -2.6541 19.1314
ltoes -10.8789
630
root -1.06228 18.1484 5.60516 -1.74647 -2.07037 -4.13208
lowerback 4.31851 0.549596 2.50948
upperback 0.532767 0.892476 2.09576
thorax -1.86901 0.433431 0.692878
lowerneck -9.4823 -1.5451 -1.74425
upperneck 28.3325 -2.11529 0.915987
head 10.6687 -1.04917 0.379311
rclavicle 2.56556e-015 -1.51076e-014
rhumerus -27.6206 29.5869 -90.3313
rradius 92.0099
rwrist 31.4365
rhand -25.3354 -34.99
rfingers 7.12502
rthumb 1.18761 -64.9664
lclavicle 2.56556e-015 -1.51076e-014
lhumerus -22.3394 -25.6958 97.8519
lradius 86.9706
lwrist -14.021
lhand -2.29317 -19.0278
lfingers 7.12502
lthumb 23.3922 9.57054
rfemur 0 0 0
rtibia 0
rfoot 0 0
rtoes 0
lfemur 18.9726 -5.76362 -12.5824
ltibia -17.9427
lfoot -2.67365 19.2055
ltoes -11.1337
631
root -1.06426 18.1483 5.60433 -1.77018 -2.17834 -4.12935
lowerback 4.38426 0.587964 2.53965
upperback 0.518754 0.948222 2.09787
thorax -1.91947 0.460534 0.674132
lowerneck -9.44091 -1.53374 -1.72154
upperneck 28.2229 -2.0885 0.865024
head 10.618 -1.04061 0.360783
rclavicle 1.33558e-016 1.27222e-014
rhumerus -27.6363 29.5408 -90.4105
rradius 91.9894
rwrist 31.5097
rhand -25.4884 -34.8695
rfingers 7.12502
rthumb 1.03983 -64.8468
lclavicle 1.33558e-016 1.27222e-014
lhumerus -22.303 -25.7488 97.8675
lradius 86.8982
lwrist -14.0155
lhand -2.28859 -19.2787
lfingers 7.12502
lthumb 23.3966 9.31908
rfemur 0 0 0
rtibia 0
rfoot 0 0
rtoes 0
lfemur 19.0294 -5.70648 -12.5847
ltibia -17.9491
lfoot -2.70316 19.2544
ltoes -11.075
632
root -1.06488 18.1487 5.6043 -1.76479 -2.17491 -4.12632
lowerback 4.40858 0.590484 2.59049
upperback 0.499844 0.955715 2.10036
thorax -1.95171 0.463527 0.647428
lowerneck -9.41471 -1.51455 -1.71753
upperneck 28.1088 -2.05143 0.832335
head 10.5692 -1.02704 0.353149
rclavicle 6.80527e-015 8.94531e-015
rhumerus -27.7133 29.4711 -90.5429
rradius 92.0125
rwrist 31.5443
rhand -25.6125 -34.9086
rfingers 7.12502
rthumb 0.919983 -64.8864
lclavicle 6.80527e-015 8.94531e-015
lhumerus -22.2628 -25.8009 97.903
lradius 86.8992
lwrist -14.0179
lhand -2.24301 -19.4214
lfingers 7.12502
lthumb 23.4403 9.17083
rfemur 0 0 0
rtibia 0
rfoot 0 0
rtoes 0
lfemur 19.0192 -5.6905 -12.583
ltibia -17.9326
lfoot -2.69674 19.232
ltoes -10.8742
633
root -1.0655 18.148 5.60437 -1.75956 -2.14975 -4.10726
lowerback 4.40555 0.586125 2.63274
upperback 0.497331 0.952049 2.10754
thorax -1.95206 0.461375 0.631414
lowerneck -9.42042 -1.49976 -1.87751
upperneck 28.0245 -2.0299 0.955595
head 10.542 -1.0195 0.427369
rclavicle -1.35795e-014 -1.80894e-014
rhumerus -27.7658 29.4323 -90.5994
rradius 92.0987
rwrist 31.4866
rhand -25.5833 -35.0056
rfingers 7.12502
rthumb 0.9482 -64.9832
lclavicle -1.35795e-014 -1.80894e-014
lhumerus -22.2081 -25.8685 97.944
lradius 86.9655
lwrist -14.0236
lhand -2.16166 -19.4028
lfingers 7.12502
lthumb 23.5183 9.17945
rfemur 0 0 0
rtibia 0
rfoot 0 0
rtoes 0
lfemur 18.9989 -5.70559 -12.6023
ltibia -17.914
lfoot -2.71099 19.2174
ltoes -10.6612
634
root -1.06658 18.1468 5.60444 -1.76286 -2.13884 -4.09287
lowerback 4.38142 0.583572 2.67743
upperback 0.521886 0.949178 2.12057
thorax -1.91282 0.460099 0.620369
lowerneck -9.46023 -1.4884 -2.09539
upperneck 27.9425 -2.01533 1.13215
head 10.5237 -1.01484 0.529427
rclavicle -1.90026e-014 -1.86858e-014
rhumerus -27.7197 29.3988 -90.5735
rradius 92.167
rwrist 31.3728
rhand -25.4533 -35.0617
rfingers 7.12502
rthumb 1.07377 -65.0388
lclavicle -1.90026e-014 -1.86858e-014
lhumerus -22.1245 -25.9324 97.9845
lradius 87.0128
lwrist -14.0358
lhand -2.18617 -19.4015
lfingers 7.12502
lthumb 23.4948 9.18377
rfemur 0 0 0
rtibia 0
rfoot 0 0
rtoes 0
lfemur 18.984 -5.73247 -12.6168
ltibia -17.8968
lfoot -2.73816 19.23
ltoes -10.6892
635
root -1.0681 18.1472 5.60515 -1.75902 -2.1338 -4.09112
lowerback 4.33404 0.578047 2.70833
upperback 0.553101 0.940572 2.14198
thorax -1.85413 0.456317 0.626283
lowerneck -9.50342 -1.47363 -2.20298
upperneck 27.8303 -1.97909 1.16788
head 10.4915 -1.00492 0.564617
rclavicle -1.07437e-014 6.75868e-015
rhumerus -27.6563 29.3479 -90.5621
rradius 92.1882
rwrist 31.2788
rhand -25.3367 -35.0639
rfingers 7.12502
rthumb 1.18637 -65.0404
lclavicle -1.07437e-014 6.75868e-015
lhumerus -22.0172 -25.9567 98.0244
lradius 87.0198
lwrist -14.0237
lhand -2.22942 -19.4541
lfingers 7.12502
lthumb 23.4533 9.13652
rfemur 0 0 0
rtibia 0
rfoot 0 0
rtoes 0
lfemur 18.9659 -5.71434 -12.6104
ltibia -17.8757
lfoot -2.7296 19.2105
ltoes -11.051
636
root -1.06934 18.1478 5.60595 -1.75466 -2.12848 -4.09517
lowerback 4.30925 0.573382 2.73556
upperback 0.552145 0.934859 2.15604
thorax -1.84109 0.453428 0.6261
lowerneck -9.48298 -1.46979 -2.19382
upperneck 27.7029 -1.94956 1.07891
head 10.4387 -1.00059 0.534858
rclavicle -1.43063e-014 1.09332e-014
rhumerus -27.6775 29.2948 -90.6123
rradius 92.1974
rwrist 31.1497
rhand -25.3458 -35.1195
rfingers 7.12502
rthumb 1.17759 -65.096
lclavicle -1.43063e-014 1.09332e-014
lhumerus -21.9713 -25.9676 98.0812
lradius 87.0171
lwrist -13.9765
lhand -2.19272 -19.5075
lfingers 7.12502
lthumb 23.4885 9.07854
rfemur 0 0 0
rtibia 0
rfoot 0 0
rtoes 0
lfemur 18.9568 -5.68581 -12.5976
ltibia -17.8555
lfoot -2.73633 19.1819
ltoes -11.1602
637
root -1.07033 18.1473 5.60678 -1.76004 -2.12779 -4.10565
lowerback 4.31192 0.581776 2.80494
upperback 0.532495 0.949844 2.14352
thorax -1.86132 0.460078 0.573418
lowerneck -9.43685 -1.48829 -2.10557
upperneck 27.554 -1.96141 0.962916
head 10.3725 -1.01026 0.477354
rclavicle -7.94517e-015 -4.17448e-015
rhumerus -27.7237 29.1839 -90.685
rradius 92.1666
rwrist 31.0353
rhand -25.4529 -35.186
rfingers 7.12502
rthumb 1.07415 -65.163
lclavicle -7.94517e-015 -4.17448e-015
lhumerus -21.9656 -26.0029 98.1447
lradius 87.026
lwrist -13.9806
lhand -2.13369 -19.5418
lfingers 7.12502
lthumb 23.5452 9.03704
rfemur 0 0 0
rtibia 0
rfoot 0 0
rtoes 0
lfemur 18.9584 -5.69707 -12.5866
ltibia -17.8445
lfoot -2.76761 19.1987
ltoes -11.0193
